<?xml version="1.0" standalone="no"?>
<!DOCTYPE svg PUBLIC "-//W3C//DTD SVG 20010904//EN"
 "http://www.w3.org/TR/2001/REC-SVG-20010904/DTD/svg10.dtd">
<svg version="1.0" xmlns="http://www.w3.org/2000/svg"
 width="1000.000000pt" height="1000.000000pt" viewBox="0 0 1000.000000 1000.000000"
 preserveAspectRatio="xMidYMid meet">
<metadata>
Created by potrace 1.14, written by Peter Selinger 2001-2017
</metadata>
<g transform="translate(0.000000,1000.000000) scale(0.100000,-0.100000)"
fill="#000000" stroke="none">
<path d="M4833 8617 c-406 -1204 -622 -1851 -619 -1854 2 -3 122 131 266 296
143 165 264 303 268 305 6 3 -368 -2321 -448 -2789 l-12 -70 -530 -353 c-292
-194 -532 -352 -533 -350 -2 2 -6 125 -9 273 -3 149 -8 342 -11 430 -3 88 -7
277 -10 420 -3 143 -8 337 -11 430 l-5 170 196 227 195 227 -337 776 c-185
426 -340 772 -343 768 -4 -5 -17 -125 -28 -268 -21 -245 -120 -1399 -232
-2689 -28 -319 -52 -581 -53 -581 -20 -14 -438 -225 -444 -225 -5 0 -18 78
-31 173 -97 741 -204 1546 -209 1567 -3 14 -7 21 -9 15 -2 -5 -22 -185 -44
-400 -72 -688 -98 -935 -175 -1674 -42 -398 -75 -730 -73 -737 2 -8 141 84
348 228 190 132 394 274 453 315 l108 75 -5 -49 c-3 -26 -8 -104 -11 -173 -6
-152 -43 -884 -49 -995 -3 -44 -8 -152 -12 -239 -6 -135 -5 -158 7 -151 8 5
322 227 699 494 377 266 708 500 735 519 294 207 1043 738 1055 747 13 11 110
-54 635 -427 341 -242 787 -558 990 -702 204 -144 511 -363 683 -485 173 -123
316 -220 319 -217 5 4 1 86 -22 506 -2 47 -7 132 -10 190 -28 560 -34 678 -41
801 l-6 100 88 -48 c349 -188 749 -401 751 -399 1 1 -18 125 -43 276 -24 151
-119 732 -209 1290 -176 1078 -175 1074 -181 1068 -2 -3 -20 -283 -39 -624
-58 -1015 -65 -1138 -70 -1142 -4 -4 -208 141 -400 283 l-70 53 -33 303 c-19
167 -56 504 -82 749 -27 245 -86 776 -130 1180 -44 404 -94 861 -111 1015 -29
262 -34 295 -42 284 -2 -2 -135 -318 -296 -702 -185 -439 -291 -703 -287 -714
4 -9 97 -155 206 -323 175 -268 200 -311 200 -346 -1 -60 -137 -1694 -142
-1699 -2 -2 -33 19 -69 48 -35 29 -286 232 -556 451 -271 219 -493 404 -493
412 0 7 -20 192 -45 411 -25 219 -92 821 -150 1338 -58 517 -108 963 -111 990
-8 62 -26 81 221 -220 109 -132 200 -242 203 -245 11 -11 -15 74 -158 510 -82
250 -219 671 -304 935 -159 489 -165 507 -182 512 -5 1 -50 -120 -101 -270z"/>
</g>
</svg>
